{
  "accessors": [
    {
      "bufferView": 1,
      "componentType": 5126,
      "count": 65532,
      "max": [
        246.5760040283203,
        142.37600708007813,
        311.05999755859375
      ],
      "min": [
        -262.2510070800781,
        -107.62899780273438,
        -68.22920227050781
      ],
      "type": "VEC3"
    },
    {
      "bufferView": 1,
      "byteOffset": 786384,
      "componentType": 5126,
      "count": 65532,
      "max": [
        1.0,
        1.0,
        1.0
      ],
      "min": [
        -0.9998424053192139,
        -0.9999072551727295,
        -1.0
      ],
      "type": "VEC3"
    },
    {
      "bufferView": 0,
      "componentType": 5125,
      "count": 327975,
      "type": "SCALAR"
    },
    {
      "bufferView": 1,
      "byteOffset": 1572768,
      "componentType": 5126,
      "count": 65532,
      "max": [
        231.968994140625,
        131.27999877929688,
        300.5790100097656
      ],
      "min": [
        -227.88699340820313,
        -108.76200103759766,
        -68.17140197753906
      ],
      "type": "VEC3"
    },
    {
      "bufferView": 1,
      "byteOffset": 2359152,
      "componentType": 5126,
      "count": 65532,
      "max": [
        0.9998341202735901,
        1.0,
        0.9835887551307678
      ],
      "min": [
        -0.9999983310699463,
        -1.0,
        -0.9970978498458862
      ],
      "type": "VEC3"
    },
    {
      "bufferView": 0,
      "byteOffset": 1311900,
      "componentType": 5125,
      "count": 351615,
      "type": "SCALAR"
    },
    {
      "bufferView": 1,
      "byteOffset": 3145536,
      "componentType": 5126,
      "count": 65532,
      "max": [
        244.4980010986328,
        129.29400634765625,
        393.62200927734375
      ],
      "min": [
        -247.78599548339844,
        -114.09100341796875,
        -68.02950286865234
      ],
      "type": "VEC3"
    },
    {
      "bufferView": 1,
      "byteOffset": 3931920,
      "componentType": 5126,
      "count": 65532,
      "max": [
        0.9865426421165466,
        0.9997764825820923,
        0.9999978542327881
      ],
      "min": [
        -0.9828770756721497,
        -0.9999999403953552,
        -0.990203857421875
      ],
      "type": "VEC3"
    },
    {
      "bufferView": 0,
      "byteOffset": 2718360,
      "componentType": 5125,
      "count": 349119,
      "type": "SCALAR"
    },
    {
      "bufferView": 1,
      "byteOffset": 4718304,
      "componentType": 5126,
      "count": 65532,
      "max": [
        235.25799560546875,
        133.95799255371094,
        387.5320129394531
      ],
      "min": [
        -234.8520050048828,
        -123.53199768066406,
        -64.41629791259766
      ],
      "type": "VEC3"
    },
    {
      "bufferView": 1,
      "byteOffset": 5504688,
      "componentType": 5126,
      "count": 65532,
      "max": [
        0.9999817609786987,
        1.0,
        0.9545224905014038
      ],
      "min": [
        -0.9999861717224121,
        -0.9999974966049194,
        -0.9996163845062256
      ],
      "type": "VEC3"
    },
    {
      "bufferView": 0,
      "byteOffset": 4114836,
      "componentType": 5125,
      "count": 345546,
      "type": "SCALAR"
    },
    {
      "bufferView": 1,
      "byteOffset": 6291072,
      "componentType": 5126,
      "count": 65532,
      "max": [
        234.3209991455078,
        132.9810028076172,
        391.27301025390625
      ],
      "min": [
        -254.50900268554688,
        -145.44700622558594,
        -64.03929901123047
      ],
      "type": "VEC3"
    },
    {
      "bufferView": 1,
      "byteOffset": 7077456,
      "componentType": 5126,
      "count": 65532,
      "max": [
        0.9958177804946899,
        0.9998708367347717,
        0.9995818734169006
      ],
      "min": [
        -0.9999861717224121,
        -1.0,
        -0.9843497276306152
      ],
      "type": "VEC3"
    },
    {
      "bufferView": 0,
      "byteOffset": 5497020,
      "componentType": 5125,
      "count": 338178,
      "type": "SCALAR"
    },
    {
      "bufferView": 1,
      "byteOffset": 7863840,
      "componentType": 5126,
      "count": 65533,
      "max": [
        245.8470001220703,
        141.54299926757813,
        393.3420104980469
      ],
      "min": [
        -261.156005859375,
        -144.93800354003906,
        -67.43099975585938
      ],
      "type": "VEC3"
    },
    {
      "bufferView": 1,
      "byteOffset": 8650236,
      "componentType": 5126,
      "count": 65533,
      "max": [
        1.0,
        1.0,
        0.9999893307685852
      ],
      "min": [
        -0.9999555945396423,
        -0.9999774098396301,
        -0.9914295077323914
      ],
      "type": "VEC3"
    },
    {
      "bufferView": 0,
      "byteOffset": 6849732,
      "componentType": 5125,
      "count": 223293,
      "type": "SCALAR"
    },
    {
      "bufferView": 1,
      "byteOffset": 9436632,
      "componentType": 5126,
      "count": 29416,
      "max": [
        244.4980010986328,
        141.5659942626953,
        393.36199951171875
      ],
      "min": [
        -257.5169982910156,
        -145.09500122070313,
        -67.99109649658203
      ],
      "type": "VEC3"
    },
    {
      "bufferView": 1,
      "byteOffset": 9789624,
      "componentType": 5126,
      "count": 29416,
      "max": [
        0.9999307990074158,
        1.0,
        0.9998462200164795
      ],
      "min": [
        -0.9999861717224121,
        -1.0,
        -1.0
      ],
      "type": "VEC3"
    },
    {
      "bufferView": 0,
      "byteOffset": 7742904,
      "componentType": 5125,
      "count": 48648,
      "type": "SCALAR"
    }
  ],
  "asset": {
    "extras": {
      "author": "Hunter Irving (https://sketchfab.com/hunterirving)",
      "license": "CC-BY-4.0 (http://creativecommons.org/licenses/by/4.0/)",
      "source": "https://sketchfab.com/3d-models/hunter-bust-2011f5ec9e81438aa2f3ec5cf9d41e70",
      "title": "Hunter Bust"
    },
    "generator": "Sketchfab-12.67.0",
    "version": "2.0"
  },
  "bufferViews": [
    {
      "buffer": 0,
      "byteLength": 7937496,
      "name": "floatBufferViews",
      "target": 34963
    },
    {
      "buffer": 0,
      "byteLength": 10142616,
      "byteOffset": 7937496,
      "byteStride": 12,
      "name": "floatBufferViews",
      "target": 34962
    }
  ],
  "buffers": [
    {
      "byteLength": 18080112,
      "uri": "scene.bin"
    }
  ],
  "materials": [
    {
      "doubleSided": true,
      "name": "Scene_-_Root",
      "pbrMetallicRoughness": {
        "baseColorFactor": [
          0.5,
          0.5,
          0.5,
          1.0
        ],
        "metallicFactor": 0.0,
        "roughnessFactor": 0.6
      }
    }
  ],
  "meshes": [
    {
      "name": "Object_0",
      "primitives": [
        {
          "attributes": {
            "NORMAL": 1,
            "POSITION": 0
          },
          "indices": 2,
          "material": 0,
          "mode": 4
        }
      ]
    },
    {
      "name": "Object_1",
      "primitives": [
        {
          "attributes": {
            "NORMAL": 4,
            "POSITION": 3
          },
          "indices": 5,
          "material": 0,
          "mode": 4
        }
      ]
    },
    {
      "name": "Object_2",
      "primitives": [
        {
          "attributes": {
            "NORMAL": 7,
            "POSITION": 6
          },
          "indices": 8,
          "material": 0,
          "mode": 4
        }
      ]
    },
    {
      "name": "Object_3",
      "primitives": [
        {
          "attributes": {
            "NORMAL": 10,
            "POSITION": 9
          },
          "indices": 11,
          "material": 0,
          "mode": 4
        }
      ]
    },
    {
      "name": "Object_4",
      "primitives": [
        {
          "attributes": {
            "NORMAL": 13,
            "POSITION": 12
          },
          "indices": 14,
          "material": 0,
          "mode": 4
        }
      ]
    },
    {
      "name": "Object_5",
      "primitives": [
        {
          "attributes": {
            "NORMAL": 16,
            "POSITION": 15
          },
          "indices": 17,
          "material": 0,
          "mode": 4
        }
      ]
    },
    {
      "name": "Object_6",
      "primitives": [
        {
          "attributes": {
            "NORMAL": 19,
            "POSITION": 18
          },
          "indices": 20,
          "material": 0,
          "mode": 4
        }
      ]
    }
  ],
  "nodes": [
    {
      "children": [
        1
      ],
      "matrix": [
        1.0,
        0.0,
        0.0,
        0.0,
        0.0,
        2.220446049250313e-16,
        -1.0,
        0.0,
        0.0,
        1.0,
        2.220446049250313e-16,
        0.0,
        0.0,
        0.0,
        0.0,
        1.0
      ],
      "name": "Sketchfab_model"
    },
    {
      "children": [
        2,
        3,
        4,
        5,
        6,
        7,
        8
      ],
      "name": "hunteri.stl.cleaner"
    },
    {
      "mesh": 0,
      "name": "Object_2"
    },
    {
      "mesh": 1,
      "name": "Object_3"
    },
    {
      "mesh": 2,
      "name": "Object_4"
    },
    {
      "mesh": 3,
      "name": "Object_5"
    },
    {
      "mesh": 4,
      "name": "Object_6"
    },
    {
      "mesh": 5,
      "name": "Object_7"
    },
    {
      "mesh": 6,
      "name": "Object_8"
    }
  ],
  "scene": 0,
  "scenes": [
    {
      "name": "Sketchfab_Scene",
      "nodes": [
        0
      ]
    }
  ]
}
